<svg width="80" height="121" viewBox="0 0 80 121" fill="none" xmlns="http://www.w3.org/2000/svg">
<path d="M0.000457967 82.1094C-0.124656 63.2669 25.4157 22.184 39.5157 2.06117C40.2566 1.00369 41.7863 0.930543 42.6273 1.91036C58.8142 20.7697 80 50.8318 80 82.1094C80 111.051 59.1094 120.156 40.9719 120.969C22.8343 121.782 0.1624 106.498 0.000457967 82.1094Z" fill="#EE1C25"/>
<path d="M6.98672 72.1173L34.9234 21.4525C35.3402 20.6965 36.4361 20.7904 36.6689 21.6217C39.1609 30.5175 39.6819 45.5583 30 64C23.9278 75.5661 11.2249 80.5965 6.98059 73.8894C6.64156 73.3536 6.68058 72.6725 6.98672 72.1173Z" fill="white"/>
</svg>
